<?xml version="1.0" standalone="no"?>
<!DOCTYPE svg PUBLIC "-//W3C//DTD SVG 20010904//EN"
 "http://www.w3.org/TR/2001/REC-SVG-20010904/DTD/svg10.dtd">
<svg version="1.0" xmlns="http://www.w3.org/2000/svg"
 width="400.000000pt" height="130.000000pt" viewBox="0 0 400.000000 130.000000"
 preserveAspectRatio="xMidYMid meet">

<g transform="translate(0.000000,130.000000) scale(0.100000,-0.100000)"
fill="#000000" stroke="none">
<path d="M526 1029 c-79 -41 -268 -107 -380 -134 -33 -8 -63 -20 -67 -27 -4
-7 -11 -41 -15 -75 -3 -35 -10 -66 -15 -69 -5 -3 -8 -20 -8 -37 l1 -32 7 28
c5 23 17 33 61 51 30 12 145 66 255 119 110 53 212 97 226 97 14 0 35 -10 46
-22 25 -27 47 -102 39 -133 -7 -26 -59 -63 -149 -103 -91 -41 -155 -88 -180
-130 l-21 -35 -70 7 c-39 3 -82 8 -96 11 l-25 6 25 -12 c14 -6 69 -14 122 -16
l96 -6 74 40 c40 22 83 46 95 53 20 13 24 12 43 -12 17 -22 31 -27 88 -33 87
-8 102 -15 181 -83 36 -32 79 -64 95 -70 28 -12 28 -14 21 -68 -7 -58 -38
-158 -54 -178 -7 -9 -44 -8 -143 1 -73 6 -181 12 -239 12 -123 1 -122 1 -168
102 -16 36 -37 71 -46 79 -9 7 -78 34 -153 59 l-137 46 -3 53 c-3 48 -1 53 15
48 10 -3 32 -8 48 -11 21 -3 17 0 -13 11 -26 10 -42 22 -42 32 -1 11 -6 7 -16
-12 -13 -24 -15 -66 -12 -270 2 -169 7 -248 16 -263 7 -12 29 -27 50 -33 49
-13 976 -13 1137 0 302 26 520 85 556 152 21 38 4 85 -52 143 -50 52 -103 84
-116 71 -3 -3 1 -6 10 -6 28 0 19 -20 -15 -35 -18 -7 -86 -22 -150 -32 -101
-17 -121 -24 -151 -50 -26 -23 -42 -29 -62 -25 -26 4 -27 7 -21 46 4 22 14 51
22 63 18 29 18 58 -2 77 -18 19 -10 37 14 30 10 -4 13 -3 6 3 -6 4 -13 16 -17
25 -3 9 -25 22 -48 28 -23 6 -70 27 -106 46 -36 19 -75 34 -88 34 -12 0 -45
16 -71 35 -27 20 -66 43 -86 53 -36 17 -58 47 -58 79 0 8 -13 43 -29 77 -16
33 -43 92 -61 131 -33 73 -56 105 -74 105 -6 -1 -47 -19 -90 -41z m1238 -805
c9 -25 8 -31 -19 -63 -29 -33 -103 -61 -230 -85 -220 -41 -492 -54 -994 -48
l-445 5 -23 23 c-21 21 -24 32 -21 82 l3 57 115 -3 c63 -2 142 -8 175 -13 33
-5 98 -9 145 -9 47 0 175 -7 285 -15 256 -19 426 -19 617 0 174 18 277 38 328
64 45 24 56 25 64 5z"/>
<path d="M2080 815 c0 -168 1 -175 20 -175 18 0 20 7 20 80 0 73 2 83 25 106
32 32 74 29 92 -6 7 -14 13 -60 13 -102 0 -71 2 -78 20 -78 19 0 20 7 20 93 0
74 -4 98 -20 125 -17 27 -26 32 -58 32 -21 0 -47 -7 -58 -15 -31 -23 -34 -19
-34 50 0 58 -2 65 -20 65 -19 0 -20 -7 -20 -175z"/>
<path d="M950 811 l0 -171 95 0 c108 0 137 12 154 62 11 31 -4 88 -28 102 -8
5 -7 14 4 29 23 32 19 82 -9 114 -23 26 -29 28 -120 31 l-96 4 0 -171z m178
113 c26 -18 28 -50 5 -76 -12 -14 -31 -18 -80 -18 l-63 0 0 48 c0 27 3 52 7
55 13 13 109 7 131 -9z m16 -150 c21 -20 20 -53 -1 -76 -13 -14 -31 -18 -85
-18 l-68 0 0 55 0 55 69 0 c50 0 74 -4 85 -16z"/>
<path d="M1854 966 c-63 -28 -84 -97 -41 -140 13 -13 48 -29 78 -36 30 -7 64
-19 77 -26 28 -18 29 -59 3 -74 -33 -17 -103 -12 -140 11 -27 16 -36 18 -42 7
-13 -19 -7 -29 32 -50 45 -25 157 -22 188 6 30 27 36 70 14 106 -14 25 -31 35
-88 52 -87 26 -97 34 -93 71 2 23 10 33 31 40 34 11 91 2 111 -18 12 -13 16
-13 26 0 16 19 5 34 -36 51 -41 17 -80 17 -120 0z"/>
<path d="M576 903 c-12 -12 -6 -33 9 -33 8 0 15 6 15 14 0 17 -14 28 -24 19z"/>
<path d="M1277 856 c-59 -59 -56 -144 7 -194 82 -64 196 -5 196 101 0 74 -53
127 -129 127 -33 0 -47 -6 -74 -34z m133 -26 c41 -41 36 -107 -12 -143 -22
-17 -31 -18 -58 -8 -43 14 -59 38 -60 82 0 76 80 119 130 69z"/>
<path d="M1569 873 c-55 -34 -75 -112 -45 -172 36 -68 133 -87 186 -36 61 58
62 132 4 191 -29 28 -42 34 -77 34 -23 0 -54 -8 -68 -17z m120 -49 c33 -42 28
-96 -11 -129 -34 -29 -67 -28 -100 2 -37 33 -28 129 14 146 36 15 77 6 97 -19z"/>
<path d="M2389 873 c-55 -34 -75 -123 -40 -176 27 -42 59 -60 106 -60 114 0
164 139 78 220 -28 27 -43 33 -76 33 -23 0 -54 -8 -68 -17z m120 -47 c60 -64
-3 -177 -83 -147 -37 15 -61 72 -47 113 21 61 89 78 130 34z"/>
<path d="M2647 856 c-39 -39 -50 -79 -37 -128 26 -93 144 -123 210 -53 20 21
21 25 7 31 -10 3 -28 -3 -43 -15 -37 -29 -79 -27 -109 5 -44 48 -36 54 75 54
l100 0 0 28 c-1 62 -57 112 -127 112 -35 0 -48 -6 -76 -34z m141 -32 c12 -14
22 -29 22 -35 0 -5 -36 -9 -80 -9 -84 0 -94 6 -66 42 17 23 56 38 81 31 11 -2
30 -16 43 -29z"/>
<path d="M2913 875 c-12 -8 -25 -29 -28 -47 -9 -40 13 -60 90 -83 40 -11 55
-20 55 -33 0 -42 -55 -55 -112 -26 -25 13 -32 14 -39 2 -20 -32 71 -65 131
-48 46 13 60 28 60 65 0 40 -22 60 -82 75 -53 14 -71 30 -62 54 9 25 52 31 89
13 28 -13 35 -14 45 -2 30 36 -100 63 -147 30z"/>
<path d="M603 814 c-7 -19 2 -28 22 -21 19 8 19 23 0 31 -9 3 -18 -1 -22 -10z"/>
<path d="M1308 433 c7 -3 16 -2 19 1 4 3 -2 6 -13 5 -11 0 -14 -3 -6 -6z"/>
<path d="M1348 423 c7 -3 16 -2 19 1 4 3 -2 6 -13 5 -11 0 -14 -3 -6 -6z"/>
<path d="M1398 413 c7 -3 16 -2 19 1 4 3 -2 6 -13 5 -11 0 -14 -3 -6 -6z"/>
</g>
</svg>
